<mxfile host="app.diagrams.net" modified="2024-03-04T08:20:47.456Z" agent="Mozilla/5.0 (Windows NT 10.0; Win64; x64) AppleWebKit/537.36 (KHTML, like Gecko) Chrome/122.0.0.0 Safari/537.36" etag="NTOTTjbYkLq0Xhio2rlK" version="24.0.1" type="device">
  <diagram name="Page-1" id="6_fus6vg4l7m-ZtgdOSW">
    <mxGraphModel dx="3609" dy="2113" grid="1" gridSize="10" guides="1" tooltips="1" connect="1" arrows="1" fold="1" page="1" pageScale="1" pageWidth="850" pageHeight="1100" math="0" shadow="0">
      <root>
        <mxCell id="0" />
        <mxCell id="1" parent="0" />
        <mxCell id="Jwk97IOGopU3wjDgA5kp-4" value="" style="edgeStyle=orthogonalEdgeStyle;rounded=0;orthogonalLoop=1;jettySize=auto;html=1;" edge="1" parent="1" source="Jwk97IOGopU3wjDgA5kp-2" target="Jwk97IOGopU3wjDgA5kp-3">
          <mxGeometry relative="1" as="geometry" />
        </mxCell>
        <mxCell id="Jwk97IOGopU3wjDgA5kp-2" value="start" style="ellipse;whiteSpace=wrap;html=1;" vertex="1" parent="1">
          <mxGeometry x="-330" y="-1050" width="120" height="80" as="geometry" />
        </mxCell>
        <mxCell id="Jwk97IOGopU3wjDgA5kp-10" value="" style="edgeStyle=orthogonalEdgeStyle;rounded=0;orthogonalLoop=1;jettySize=auto;html=1;" edge="1" parent="1" source="Jwk97IOGopU3wjDgA5kp-3" target="Jwk97IOGopU3wjDgA5kp-8">
          <mxGeometry relative="1" as="geometry" />
        </mxCell>
        <mxCell id="Jwk97IOGopU3wjDgA5kp-3" value="M . N , max" style="shape=parallelogram;perimeter=parallelogramPerimeter;whiteSpace=wrap;html=1;fixedSize=1;" vertex="1" parent="1">
          <mxGeometry x="-330" y="-900" width="120" height="60" as="geometry" />
        </mxCell>
        <mxCell id="Jwk97IOGopU3wjDgA5kp-13" value="" style="edgeStyle=orthogonalEdgeStyle;rounded=0;orthogonalLoop=1;jettySize=auto;html=1;" edge="1" parent="1" source="Jwk97IOGopU3wjDgA5kp-5">
          <mxGeometry relative="1" as="geometry">
            <mxPoint x="-270" y="-450" as="targetPoint" />
          </mxGeometry>
        </mxCell>
        <mxCell id="Jwk97IOGopU3wjDgA5kp-22" value="" style="edgeStyle=orthogonalEdgeStyle;rounded=0;orthogonalLoop=1;jettySize=auto;html=1;" edge="1" parent="1" source="Jwk97IOGopU3wjDgA5kp-5" target="Jwk97IOGopU3wjDgA5kp-21">
          <mxGeometry relative="1" as="geometry" />
        </mxCell>
        <mxCell id="Jwk97IOGopU3wjDgA5kp-5" value="for(int i =M;i&amp;lt;=N;i++)" style="shape=hexagon;perimeter=hexagonPerimeter2;whiteSpace=wrap;html=1;fixedSize=1;" vertex="1" parent="1">
          <mxGeometry x="-330" y="-620" width="120" height="80" as="geometry" />
        </mxCell>
        <mxCell id="Jwk97IOGopU3wjDgA5kp-11" value="" style="edgeStyle=orthogonalEdgeStyle;rounded=0;orthogonalLoop=1;jettySize=auto;html=1;" edge="1" parent="1" source="Jwk97IOGopU3wjDgA5kp-8" target="Jwk97IOGopU3wjDgA5kp-5">
          <mxGeometry relative="1" as="geometry" />
        </mxCell>
        <mxCell id="Jwk97IOGopU3wjDgA5kp-8" value="max=M" style="whiteSpace=wrap;html=1;" vertex="1" parent="1">
          <mxGeometry x="-330" y="-790" width="120" height="60" as="geometry" />
        </mxCell>
        <mxCell id="Jwk97IOGopU3wjDgA5kp-17" value="" style="edgeStyle=orthogonalEdgeStyle;rounded=0;orthogonalLoop=1;jettySize=auto;html=1;" edge="1" parent="1" source="Jwk97IOGopU3wjDgA5kp-15" target="Jwk97IOGopU3wjDgA5kp-16">
          <mxGeometry relative="1" as="geometry" />
        </mxCell>
        <mxCell id="Jwk97IOGopU3wjDgA5kp-19" value="true" style="edgeLabel;html=1;align=center;verticalAlign=middle;resizable=0;points=[];" vertex="1" connectable="0" parent="Jwk97IOGopU3wjDgA5kp-17">
          <mxGeometry x="-0.2667" y="-1" relative="1" as="geometry">
            <mxPoint as="offset" />
          </mxGeometry>
        </mxCell>
        <mxCell id="Jwk97IOGopU3wjDgA5kp-20" style="edgeStyle=orthogonalEdgeStyle;rounded=0;orthogonalLoop=1;jettySize=auto;html=1;" edge="1" parent="1" source="Jwk97IOGopU3wjDgA5kp-15" target="Jwk97IOGopU3wjDgA5kp-5">
          <mxGeometry relative="1" as="geometry">
            <Array as="points">
              <mxPoint x="-110" y="-410" />
              <mxPoint x="-110" y="-580" />
            </Array>
          </mxGeometry>
        </mxCell>
        <mxCell id="Jwk97IOGopU3wjDgA5kp-25" value="false" style="edgeLabel;html=1;align=center;verticalAlign=middle;resizable=0;points=[];" vertex="1" connectable="0" parent="Jwk97IOGopU3wjDgA5kp-20">
          <mxGeometry x="-0.7579" y="1" relative="1" as="geometry">
            <mxPoint as="offset" />
          </mxGeometry>
        </mxCell>
        <mxCell id="Jwk97IOGopU3wjDgA5kp-15" value="i&amp;gt;max" style="rhombus;whiteSpace=wrap;html=1;" vertex="1" parent="1">
          <mxGeometry x="-310" y="-450" width="80" height="80" as="geometry" />
        </mxCell>
        <mxCell id="Jwk97IOGopU3wjDgA5kp-18" style="edgeStyle=orthogonalEdgeStyle;rounded=0;orthogonalLoop=1;jettySize=auto;html=1;entryX=0;entryY=0.5;entryDx=0;entryDy=0;" edge="1" parent="1" source="Jwk97IOGopU3wjDgA5kp-16" target="Jwk97IOGopU3wjDgA5kp-5">
          <mxGeometry relative="1" as="geometry">
            <Array as="points">
              <mxPoint x="-490" y="-250" />
              <mxPoint x="-490" y="-580" />
            </Array>
          </mxGeometry>
        </mxCell>
        <mxCell id="Jwk97IOGopU3wjDgA5kp-16" value="max = i" style="whiteSpace=wrap;html=1;" vertex="1" parent="1">
          <mxGeometry x="-330" y="-280" width="120" height="60" as="geometry" />
        </mxCell>
        <mxCell id="Jwk97IOGopU3wjDgA5kp-24" value="" style="edgeStyle=orthogonalEdgeStyle;rounded=0;orthogonalLoop=1;jettySize=auto;html=1;" edge="1" parent="1" source="Jwk97IOGopU3wjDgA5kp-21" target="Jwk97IOGopU3wjDgA5kp-23">
          <mxGeometry relative="1" as="geometry" />
        </mxCell>
        <mxCell id="Jwk97IOGopU3wjDgA5kp-21" value="max" style="shape=document;whiteSpace=wrap;html=1;boundedLbl=1;" vertex="1" parent="1">
          <mxGeometry x="-870" y="-420" width="120" height="80" as="geometry" />
        </mxCell>
        <mxCell id="Jwk97IOGopU3wjDgA5kp-23" value="end" style="ellipse;whiteSpace=wrap;html=1;" vertex="1" parent="1">
          <mxGeometry x="-850" y="-260" width="80" height="80" as="geometry" />
        </mxCell>
        <mxCell id="Jwk97IOGopU3wjDgA5kp-28" value="" style="edgeStyle=orthogonalEdgeStyle;rounded=0;orthogonalLoop=1;jettySize=auto;html=1;" edge="1" parent="1" source="Jwk97IOGopU3wjDgA5kp-26">
          <mxGeometry relative="1" as="geometry">
            <mxPoint x="570" y="-790" as="targetPoint" />
          </mxGeometry>
        </mxCell>
        <mxCell id="Jwk97IOGopU3wjDgA5kp-26" value="start" style="ellipse;whiteSpace=wrap;html=1;" vertex="1" parent="1">
          <mxGeometry x="510" y="-960" width="120" height="80" as="geometry" />
        </mxCell>
        <mxCell id="Jwk97IOGopU3wjDgA5kp-31" value="" style="edgeStyle=orthogonalEdgeStyle;rounded=0;orthogonalLoop=1;jettySize=auto;html=1;" edge="1" parent="1" source="Jwk97IOGopU3wjDgA5kp-29" target="Jwk97IOGopU3wjDgA5kp-30">
          <mxGeometry relative="1" as="geometry" />
        </mxCell>
        <mxCell id="Jwk97IOGopU3wjDgA5kp-29" value="M , sum=0 , count=0&amp;nbsp;" style="shape=parallelogram;perimeter=parallelogramPerimeter;whiteSpace=wrap;html=1;fixedSize=1;" vertex="1" parent="1">
          <mxGeometry x="490" y="-790" width="140" height="80" as="geometry" />
        </mxCell>
        <mxCell id="Jwk97IOGopU3wjDgA5kp-33" value="" style="edgeStyle=orthogonalEdgeStyle;rounded=0;orthogonalLoop=1;jettySize=auto;html=1;" edge="1" parent="1" source="Jwk97IOGopU3wjDgA5kp-30" target="Jwk97IOGopU3wjDgA5kp-32">
          <mxGeometry relative="1" as="geometry" />
        </mxCell>
        <mxCell id="Jwk97IOGopU3wjDgA5kp-40" style="edgeStyle=orthogonalEdgeStyle;rounded=0;orthogonalLoop=1;jettySize=auto;html=1;" edge="1" parent="1" source="Jwk97IOGopU3wjDgA5kp-30">
          <mxGeometry relative="1" as="geometry">
            <mxPoint x="350" y="-640" as="targetPoint" />
          </mxGeometry>
        </mxCell>
        <mxCell id="Jwk97IOGopU3wjDgA5kp-30" value="for(int i =20;i&amp;lt;M;i++)" style="shape=hexagon;perimeter=hexagonPerimeter2;whiteSpace=wrap;html=1;fixedSize=1;" vertex="1" parent="1">
          <mxGeometry x="510" y="-660" width="120" height="80" as="geometry" />
        </mxCell>
        <mxCell id="Jwk97IOGopU3wjDgA5kp-35" value="" style="edgeStyle=orthogonalEdgeStyle;rounded=0;orthogonalLoop=1;jettySize=auto;html=1;" edge="1" parent="1" source="Jwk97IOGopU3wjDgA5kp-32" target="Jwk97IOGopU3wjDgA5kp-34">
          <mxGeometry relative="1" as="geometry" />
        </mxCell>
        <mxCell id="Jwk97IOGopU3wjDgA5kp-37" style="edgeStyle=orthogonalEdgeStyle;rounded=0;orthogonalLoop=1;jettySize=auto;html=1;" edge="1" parent="1" source="Jwk97IOGopU3wjDgA5kp-32">
          <mxGeometry relative="1" as="geometry">
            <mxPoint x="630" y="-620" as="targetPoint" />
            <Array as="points">
              <mxPoint x="900" y="-460" />
              <mxPoint x="900" y="-620" />
            </Array>
          </mxGeometry>
        </mxCell>
        <mxCell id="Jwk97IOGopU3wjDgA5kp-38" value="true" style="edgeLabel;html=1;align=center;verticalAlign=middle;resizable=0;points=[];" vertex="1" connectable="0" parent="Jwk97IOGopU3wjDgA5kp-37">
          <mxGeometry x="-0.9199" y="4" relative="1" as="geometry">
            <mxPoint as="offset" />
          </mxGeometry>
        </mxCell>
        <mxCell id="Jwk97IOGopU3wjDgA5kp-39" value="false" style="edgeLabel;html=1;align=center;verticalAlign=middle;resizable=0;points=[];" vertex="1" connectable="0" parent="Jwk97IOGopU3wjDgA5kp-37">
          <mxGeometry x="0.0657" y="-1" relative="1" as="geometry">
            <mxPoint as="offset" />
          </mxGeometry>
        </mxCell>
        <mxCell id="Jwk97IOGopU3wjDgA5kp-32" value="i%21==0" style="rhombus;whiteSpace=wrap;html=1;" vertex="1" parent="1">
          <mxGeometry x="530" y="-500" width="80" height="80" as="geometry" />
        </mxCell>
        <mxCell id="Jwk97IOGopU3wjDgA5kp-36" style="edgeStyle=orthogonalEdgeStyle;rounded=0;orthogonalLoop=1;jettySize=auto;html=1;entryX=1;entryY=0.5;entryDx=0;entryDy=0;" edge="1" parent="1" source="Jwk97IOGopU3wjDgA5kp-34" target="Jwk97IOGopU3wjDgA5kp-30">
          <mxGeometry relative="1" as="geometry">
            <Array as="points">
              <mxPoint x="840" y="-460" />
              <mxPoint x="840" y="-620" />
            </Array>
          </mxGeometry>
        </mxCell>
        <mxCell id="Jwk97IOGopU3wjDgA5kp-34" value="count++&lt;div&gt;sum+=i&lt;/div&gt;" style="whiteSpace=wrap;html=1;" vertex="1" parent="1">
          <mxGeometry x="670" y="-490" width="120" height="60" as="geometry" />
        </mxCell>
        <mxCell id="Jwk97IOGopU3wjDgA5kp-44" value="" style="edgeStyle=orthogonalEdgeStyle;rounded=0;orthogonalLoop=1;jettySize=auto;html=1;" edge="1" parent="1" source="Jwk97IOGopU3wjDgA5kp-42" target="Jwk97IOGopU3wjDgA5kp-43">
          <mxGeometry relative="1" as="geometry" />
        </mxCell>
        <mxCell id="Jwk97IOGopU3wjDgA5kp-42" value="sum/count" style="shape=document;whiteSpace=wrap;html=1;boundedLbl=1;" vertex="1" parent="1">
          <mxGeometry x="230" y="-660" width="120" height="80" as="geometry" />
        </mxCell>
        <mxCell id="Jwk97IOGopU3wjDgA5kp-43" value="end" style="ellipse;whiteSpace=wrap;html=1;" vertex="1" parent="1">
          <mxGeometry x="250" y="-500" width="80" height="80" as="geometry" />
        </mxCell>
      </root>
    </mxGraphModel>
  </diagram>
</mxfile>
